<svg xmlns="http://www.w3.org/2000/svg" xmlns:xlink="http://www.w3.org/1999/xlink" viewBox="0 0 187.73 51.44"><defs><style>.cls-1{fill:#bfd82a;}.cls-2{fill:#85b730;}.cls-3{fill:url(#radial-gradient);}</style><radialGradient id="radial-gradient" cx="27.38" cy="32.26" r="19.57" gradientUnits="userSpaceOnUse"><stop offset="0" stop-color="#85b730"/><stop offset="1" stop-color="#e4edbe"/></radialGradient></defs><g id="Layer_2" data-name="Layer 2"><g id="Layer_1-2" data-name="Layer 1"><path class="cls-1" d="M64.1,37.85c.07.47.58.74,1.22.74s1.07-.29,1.07-.69-.29-.55-1.06-.7l-.67-.12c-1.31-.25-2-.89-2-1.88,0-1.26,1.09-2.07,2.59-2.07,1.65,0,2.62.8,2.64,2H66.36c0-.47-.47-.75-1.07-.75s-1,.27-1,.65.3.54,1,.67l.67.13c1.39.27,2,.83,2,1.86,0,1.32-1,2.15-2.76,2.15s-2.71-.75-2.73-2Z"/><path class="cls-1" d="M72.28,39.78V37.53L70,33.24h1.78L73.11,36h0l1.3-2.72h1.75l-2.25,4.29v2.25Z"/><path class="cls-1" d="M79.74,37.85c.07.47.58.74,1.21.74S82,38.3,82,37.9s-.28-.55-1-.7l-.67-.12c-1.31-.25-2-.89-2-1.88,0-1.26,1.09-2.07,2.59-2.07,1.65,0,2.62.8,2.64,2H82c0-.47-.47-.75-1.07-.75s-1,.27-1,.65.3.54,1,.67l.67.13c1.39.27,2,.83,2,1.86,0,1.32-1,2.15-2.76,2.15s-2.71-.75-2.73-2Z"/><path class="cls-1" d="M87.82,39.78v-5.2H86V33.24h5.27v1.34H89.48v5.2Z"/><path class="cls-1" d="M98.33,39.78H93.85V33.24h4.48v1.34H95.51v1.3h2.65V37.1H95.51v1.34h2.82Z"/><path class="cls-1" d="M106.84,39.78V35.7h0l-1.62,4.08h-1l-1.61-4.08h0v4.08h-1.46V33.24h1.92l1.65,4.27h0l1.65-4.27h1.92v6.54Z"/><path class="cls-2" d="M62.55,19.4c0-4.43,2.55-7,6.6-7,3.44,0,6,2.21,6.15,5.42H72a2.8,2.8,0,0,0-2.83-2.66c-1.88,0-3.08,1.61-3.08,4.25s1.19,4.28,3.09,4.28A2.77,2.77,0,0,0,72,21.08h3.33c-.16,3.22-2.67,5.35-6.17,5.35C65.08,26.43,62.55,23.84,62.55,19.4Z"/><path class="cls-2" d="M76.54,24.43l4.82-5.92v-.06H76.65V15.94h8.6v2l-4.37,5.65v.06h4.53V26.2H76.54Z"/><path class="cls-2" d="M87.17,30V27.44l.72,0c1,0,1.55-.26,1.63-.89a2.23,2.23,0,0,0,0-.37L86.09,15.94h3.68l1.85,7.75h.07l1.83-7.75H97L93.77,26.17c-.88,2.75-2.38,3.8-5.38,3.8Z"/><path class="cls-2" d="M102.21,15.7c2.82,0,4.52,1.37,4.57,3.48h-3A1.36,1.36,0,0,0,102.21,18c-.81,0-1.36.36-1.36.91s.3.73,1.28.93l1.81.35c2.18.43,3.13,1.28,3.13,2.81,0,2.13-1.93,3.49-4.74,3.49-3,0-4.75-1.37-4.92-3.43h3.23c.15.76.72,1.18,1.69,1.18s1.43-.34,1.43-.87-.33-.71-1.26-.9l-1.8-.36c-2-.39-3-1.45-3-3C97.65,17,99.4,15.7,102.21,15.7Z"/><path class="cls-2" d="M112.43,13.65v2.29h1.84V18.4h-1.84v4.3c0,.71.37,1.07,1.17,1.07a3.22,3.22,0,0,0,.66-.05v2.37a7.06,7.06,0,0,1-1.46.13c-2.66,0-3.72-.82-3.72-2.84v-5h-1.39V15.94h1.39V13.65Z"/><path class="cls-2" d="M125.37,23c-.32,2.12-2.2,3.48-4.88,3.48-3.27,0-5.22-2-5.22-5.32s2-5.42,5.1-5.42a4.78,4.78,0,0,1,5.06,5.16v.94h-6.92V22a2,2,0,0,0,2,2.07A1.8,1.8,0,0,0,122.36,23Zm-6.81-3.06h3.72a1.8,1.8,0,0,0-1.85-1.83A1.87,1.87,0,0,0,118.56,19.9Z"/><path class="cls-2" d="M130.31,19.4c0-4.43,2.55-7,6.6-7,3.44,0,6,2.21,6.15,5.42h-3.33a2.79,2.79,0,0,0-2.82-2.66c-1.88,0-3.08,1.61-3.08,4.25s1.19,4.28,3.09,4.28a2.77,2.77,0,0,0,2.83-2.59h3.33c-.16,3.22-2.67,5.35-6.17,5.35C132.84,26.43,130.31,23.84,130.31,19.4Z"/><path class="cls-2" d="M144.5,15.94h3.34V26.2H144.5Zm0-2.77a1.65,1.65,0,1,1,1.64,1.61A1.63,1.63,0,0,1,144.51,13.17Z"/><path class="cls-2" d="M159.26,23c-.32,2.12-2.21,3.48-4.89,3.48-3.27,0-5.22-2-5.22-5.32s2-5.42,5.11-5.42a4.77,4.77,0,0,1,5.05,5.16v.94h-6.92V22a2,2,0,0,0,2,2.07A1.79,1.79,0,0,0,156.24,23Zm-6.82-3.06h3.73a1.81,1.81,0,0,0-1.86-1.83A1.88,1.88,0,0,0,152.44,19.9Z"/><path class="cls-2" d="M171.2,21.08c0,3.34-1.5,5.27-4,5.27a3.21,3.21,0,0,1-3.14-1.9H164v5.06h-3.34V15.94h3.32v1.83H164a3.18,3.18,0,0,1,3.1-2C169.69,15.79,171.2,17.72,171.2,21.08Zm-3.41,0c0-1.63-.75-2.68-1.93-2.68s-1.92,1.06-1.93,2.68.75,2.66,1.93,2.66S167.79,22.7,167.79,21.08Z"/><path class="cls-2" d="M172.56,20.62l-.9.52V19l.9-.51V12.61h3.34v4l.89-.51V18.2l-.89.52V26.2h-3.34Z"/><path class="cls-2" d="M177.25,21.07c0-3.36,2.06-5.37,5.24-5.37s5.24,2,5.24,5.37-2,5.37-5.24,5.37S177.25,24.48,177.25,21.07Zm7.1,0c0-1.85-.72-2.93-1.86-2.93s-1.85,1.08-1.85,2.93.7,2.91,1.85,2.91S184.35,23,184.35,21.08Z"/><path class="cls-3" d="M19.58,17.15A22.77,22.77,0,0,0,20,20.44a13.32,13.32,0,0,0-5.89,10.32,23.28,23.28,0,0,0-3,1.26c0-.17,0-.35,0-.53A16.35,16.35,0,0,1,19.58,17.15ZM9.65,32.79c0-.43-.05-.87-.05-1.3a17.8,17.8,0,0,1,10-16,20.14,20.14,0,0,1,.15-2.45A20,20,0,0,0,7.43,31.49a19.19,19.19,0,0,0,.18,2.64A23.12,23.12,0,0,1,9.65,32.79ZM24,29.67a23.43,23.43,0,0,1-1.55-2.45,6.51,6.51,0,0,0-1.3,2.33h.42C22.39,29.54,23.21,29.59,24,29.67Zm-8.47.66a22.93,22.93,0,0,1,4.07-.7,8,8,0,0,1,2.15-3.81,22,22,0,0,1-1.42-3.91A11.87,11.87,0,0,0,15.54,30.33Zm29.62,1.16c0,.43,0,.87,0,1.3a23.12,23.12,0,0,1,2,1.34,19.19,19.19,0,0,0,.18-2.64A20,20,0,0,0,35.06,13.08a20.14,20.14,0,0,1,.15,2.45A17.8,17.8,0,0,1,45.16,31.49ZM30.74,29.67c.81-.08,1.63-.13,2.44-.13h.42a6.54,6.54,0,0,0-1.31-2.33A21.89,21.89,0,0,1,30.74,29.67Zm9.91,1.09A23.28,23.28,0,0,1,43.7,32c0-.17,0-.35,0-.53a16.33,16.33,0,0,0-8.53-14.34,22.91,22.91,0,0,1-.42,3.3A13.29,13.29,0,0,1,40.65,30.76Zm-5.5-1.13a22.93,22.93,0,0,1,4.07.7,11.89,11.89,0,0,0-4.8-8.42A23.13,23.13,0,0,1,33,25.82,8,8,0,0,1,35.15,29.63ZM19,45.47a16.28,16.28,0,0,0,16.85,0,22.36,22.36,0,0,1-2.62-2,13.27,13.27,0,0,1-11.62,0A22.25,22.25,0,0,1,19,45.47Zm8.42,3.8a17.74,17.74,0,0,1-9.79-2.94,22.32,22.32,0,0,1-2.18,1.11,19.91,19.91,0,0,0,23.94,0,22.32,22.32,0,0,1-2.18-1.11A17.77,17.77,0,0,1,27.38,49.27Zm1.24-11.39a22.5,22.5,0,0,1-1.24-2.39,22.5,22.5,0,0,1-1.24,2.39,6.28,6.28,0,0,0,1.24.12A6.36,6.36,0,0,0,28.62,37.88Zm-6,4.53a11.88,11.88,0,0,0,9.45,0,24,24,0,0,1-2.64-3.21,7.52,7.52,0,0,1-2.08.28,7.64,7.64,0,0,1-2.09-.28A23.23,23.23,0,0,1,22.65,42.41Z"/><path class="cls-2" d="M20.9,30.86c-.5,0-1,0-1.49.09a23.2,23.2,0,0,0-3.92.75c-.47.13-.92.28-1.38.44a22,22,0,0,0-2.94,1.29c-.46.24-.92.5-1.36.78a20.25,20.25,0,0,0-2,1.37A22.2,22.2,0,0,0,0,47.42a22.4,22.4,0,0,0,5.8.77,22.07,22.07,0,0,0,8.47-1.68,21.29,21.29,0,0,0,2.16-1c.46-.25.91-.52,1.35-.8a21.87,21.87,0,0,0,2.59-1.91c.37-.32.73-.64,1.07-1a23,23,0,0,0,2.6-3c.29-.41.56-.83.82-1.26a22.34,22.34,0,0,0,2.52-5.87A22.26,22.26,0,0,0,20.9,30.86Z"/><path class="cls-2" d="M32,25a22.62,22.62,0,0,0,1.3-3.79c.12-.48.22-1,.3-1.43a21.56,21.56,0,0,0,.33-3.21c0-.52,0-1.05,0-1.58a23.84,23.84,0,0,0-.22-2.39A22.25,22.25,0,0,0,27.38,0a22.25,22.25,0,0,0-6.31,12.56A21.23,21.23,0,0,0,20.85,15c0,.29,0,.57,0,.86s0,.48,0,.72a23,23,0,0,0,.34,3.21c.08.48.19,1,.3,1.43A22.62,22.62,0,0,0,22.78,25c.21.46.43.9.66,1.35a22.45,22.45,0,0,0,3.94,5.31,22.14,22.14,0,0,0,3.93-5.31C31.55,25.86,31.77,25.41,32,25Z"/><path class="cls-2" d="M46.91,35.58a20.25,20.25,0,0,0-2-1.37c-.44-.28-.9-.53-1.36-.78a23.37,23.37,0,0,0-2.94-1.29c-.45-.16-.91-.31-1.38-.44A22.24,22.24,0,0,0,35.35,31a14.71,14.71,0,0,0-1.49-.1,22.22,22.22,0,0,0-6.48.76,22.32,22.32,0,0,0,2.51,5.87c.27.43.54.85.83,1.26a22.28,22.28,0,0,0,2.6,3c.34.34.7.66,1.07,1A21.76,21.76,0,0,0,37,44.69c.44.28.89.55,1.35.8.71.38,1.43.72,2.17,1a22.28,22.28,0,0,0,14.27.9A22.2,22.2,0,0,0,46.91,35.58Z"/></g></g></svg>